<?xml version="1.0" standalone="no"?>
<!DOCTYPE svg PUBLIC "-//W3C//DTD SVG 20010904//EN"
 "http://www.w3.org/TR/2001/REC-SVG-20010904/DTD/svg10.dtd">
<svg version="1.0" xmlns="http://www.w3.org/2000/svg"
 width="16.000000pt" height="16.000000pt" viewBox="0 0 16.000000 16.000000"
 preserveAspectRatio="xMidYMid meet">
<metadata>
Created by potrace 1.11, written by Peter Selinger 2001-2013
</metadata>
<g transform="translate(0.000000,16.000000) scale(0.002286,-0.002286)"
fill="#000000" stroke="none">
<path d="M454 6960 c-193 -28 -343 -158 -401 -346 -17 -56 -18 -191 -18 -3129
0 -2953 1 -3072 18 -3130 48 -156 168 -278 327 -331 53 -18 163 -19 3110 -22
2949 -3 3195 -1 3222 26 4 4 -263 224 -592 489 l-600 481 -74 -23 c-276 -85
-601 -35 -851 130 -214 142 -358 348 -432 615 -27 100 -25 387 5 492 88 318
299 562 593 688 142 60 217 74 399 75 181 0 258 -15 406 -76 202 -84 407 -276
508 -476 112 -224 140 -495 76 -732 -20 -72 -20 -75 -3 -92 10 -9 205 -166
433 -349 l415 -333 3 2892 c2 2492 0 2896 -12 2920 -26 49 -106 129 -164 165
-126 76 -33 70 -1315 74 -631 1 -1153 -1 -1160 -5 -7 -4 -291 -294 -631 -643
-341 -349 -686 -702 -767 -785 l-148 -150 20 -80 c44 -176 34 -406 -26 -577
-239 -683 -1079 -914 -1632 -448 -486 409 -477 1175 20 1575 96 78 265 164
382 195 168 45 425 37 588 -19 l55 -19 206 209 c227 231 578 589 671 687 l59
62 -1319 -1 c-726 -1 -1343 -5 -1371 -9z m4885 -886 c509 -104 860 -580 811
-1098 -13 -133 -40 -230 -99 -351 -142 -290 -401 -491 -721 -557 -123 -26
-334 -20 -450 11 -41 11 -78 21 -81 21 -5 0 -1233 -1252 -1767 -1802 l-113
-116 11 -39 c18 -62 24 -282 10 -370 -34 -217 -136 -417 -287 -565 -95 -94
-162 -142 -278 -198 -178 -87 -360 -120 -546 -100 -247 27 -455 125 -624 295
-170 169 -268 377 -295 624 -20 186 13 368 100 546 56 116 104 183 198 278
148 151 348 253 564 287 165 27 400 -2 543 -65 l54 -23 898 919 c676 692 898
925 897 941 -1 13 -12 61 -25 108 -21 76 -24 104 -23 260 0 160 3 183 27 265
35 115 102 252 165 335 245 324 637 474 1031 394z"/>
<path d="M5040 5401 c-176 -57 -280 -232 -240 -402 16 -69 33 -101 78 -151
165 -183 457 -141 560 80 23 49 27 71 27 147 0 74 -4 98 -23 137 -34 70 -93
130 -158 163 -49 25 -73 30 -139 32 -44 1 -91 -1 -105 -6z"/>
<path d="M1847 2229 c-93 -22 -176 -89 -224 -181 -25 -47 -28 -64 -28 -148 0
-85 3 -101 29 -153 35 -68 91 -123 161 -157 42 -21 65 -25 140 -25 76 0 98 4
147 27 148 69 228 240 184 392 -53 183 -228 288 -409 245z"/>
<path d="M1723 5422 c-104 -42 -189 -136 -214 -236 -38 -153 44 -326 186 -392
137 -63 290 -32 394 81 65 70 85 124 86 225 0 72 -4 94 -26 141 -34 73 -96
134 -168 167 -73 34 -194 41 -258 14z"/>
<path d="M5073 2285 c-97 -26 -184 -101 -226 -194 -33 -72 -31 -198 5 -273 32
-69 96 -135 163 -167 73 -36 189 -41 270 -10 71 27 149 100 185 173 34 72 39
182 11 258 -42 110 -138 195 -246 216 -73 15 -97 14 -162 -3z"/>
</g>
</svg>
